<?xml version="1.0" standalone="no"?>
<!DOCTYPE svg PUBLIC "-//W3C//DTD SVG 20010904//EN"
 "http://www.w3.org/TR/2001/REC-SVG-20010904/DTD/svg10.dtd">
<svg version="1.0" xmlns="http://www.w3.org/2000/svg"
 width="500.000000pt" height="272.000000pt" viewBox="0 0 500.000000 272.000000"
 preserveAspectRatio="xMidYMid meet">

<g transform="translate(0.000000,272.000000) scale(0.100000,-0.100000)"
fill="#000000" stroke="none">
<path d="M2482 2617 l-92 -92 178 -178 c97 -97 182 -177 188 -177 6 0 48 41
94 91 l83 91 -179 179 -180 179 -92 -93z"/>
<path d="M2141 2329 l-174 -181 89 -89 90 -89 182 182 183 183 -93 88 c-51 48
-95 87 -98 87 -3 0 -83 -81 -179 -181z"/>
<path d="M2465 2200 l-80 -80 83 -83 83 -83 82 83 81 83 -79 80 c-44 44 -82
80 -85 80 -3 0 -41 -36 -85 -80z"/>
<path d="M2761 2089 l-174 -180 89 -90 90 -89 182 182 182 183 -88 88 c-47 48
-91 87 -97 86 -5 0 -88 -81 -184 -180z"/>
<path d="M2238 1976 l-86 -93 179 -179 179 -179 92 93 93 92 -180 180 c-99 99
-182 180 -185 180 -3 0 -44 -42 -92 -94z"/>
<path d="M310 1277 c-19 -6 -51 -28 -71 -48 -69 -69 -60 -162 22 -216 77 -51
217 -41 268 20 20 25 -7 32 -32 9 -64 -60 -163 -54 -216 14 -15 20 -21 41 -21
80 0 47 4 59 33 90 56 62 149 57 202 -10 l25 -31 0 53 c0 50 -1 52 -20 42 -14
-8 -31 -8 -58 0 -45 12 -86 11 -132 -3z"/>
<path d="M715 1278 c-103 -37 -147 -139 -95 -224 59 -94 247 -100 318 -9 97
123 -62 290 -223 233z m125 -23 c50 -26 77 -101 60 -164 -39 -146 -240 -116
-240 36 0 112 89 175 180 128z"/>
<path d="M1517 1276 c-139 -51 -154 -211 -26 -276 83 -43 216 -15 259 54 28
46 27 113 -2 156 -44 65 -152 95 -231 66z m150 -40 c33 -30 37 -39 41 -92 3
-50 0 -64 -20 -94 -42 -61 -133 -73 -183 -23 -63 64 -50 188 24 228 47 26 97
19 138 -19z"/>
<path d="M2121 1277 c-72 -23 -130 -112 -114 -176 19 -79 97 -125 202 -119 56
3 75 9 105 31 51 40 35 52 -21 17 -107 -68 -223 -13 -223 106 0 48 4 59 34 92
33 35 38 37 96 37 59 0 64 -2 95 -37 17 -21 34 -36 36 -34 2 3 3 25 1 50 -4
41 -6 45 -23 35 -13 -7 -31 -7 -57 1 -45 12 -86 11 -131 -3z"/>
<path d="M2525 1278 c-76 -27 -115 -78 -115 -149 0 -184 332 -205 366 -23 9
50 -3 83 -44 125 -54 53 -136 72 -207 47z m132 -28 c56 -34 76 -104 49 -175
-21 -53 -54 -77 -111 -77 -84 -2 -130 56 -123 150 4 48 10 60 41 89 43 39 94
44 144 13z"/>
<path d="M1020 1245 c0 -19 5 -35 10 -35 6 0 10 7 10 15 0 21 32 35 80 35 l41
0 -3 -122 c-3 -117 -4 -124 -25 -133 -40 -17 -25 -25 52 -25 43 0 75 4 75 10
0 6 -9 10 -19 10 -27 0 -31 18 -31 146 l0 114 44 0 c42 0 76 -18 76 -41 0 -5
5 -9 10 -9 6 0 10 16 10 35 l0 35 -165 0 -165 0 0 -35z"/>
<path d="M2858 1268 c30 -15 33 -34 30 -153 -3 -93 -5 -101 -25 -110 -39 -17
-25 -25 42 -25 62 0 91 15 43 22 -22 3 -23 8 -28 116 -3 61 -2 112 2 112 4 0
35 -56 70 -125 35 -69 67 -124 72 -122 5 2 38 59 75 127 l66 125 3 -104 c3
-119 1 -131 -28 -131 -11 0 -20 -4 -20 -10 0 -6 32 -10 75 -10 43 0 75 4 75
10 0 6 -6 10 -14 10 -8 0 -18 4 -21 10 -5 8 -9 182 -6 236 1 6 11 16 24 22 18
9 12 11 -38 11 l-60 1 -58 -111 c-32 -61 -60 -109 -62 -107 -2 1 -28 50 -59
108 l-55 105 -63 2 c-53 2 -59 0 -40 -9z"/>
<path d="M3388 1268 c21 -11 22 -16 22 -135 0 -116 -1 -125 -20 -130 -44 -12
-16 -23 55 -23 41 0 75 4 75 9 0 5 -10 11 -22 13 -20 3 -23 10 -26 54 l-3 52
70 4 c102 5 156 52 128 109 -22 44 -71 59 -192 58 -87 0 -105 -3 -87 -11z
m209 -30 c8 -9 16 -29 16 -44 0 -41 -35 -64 -94 -64 l-49 0 0 66 0 66 56 -4
c31 -3 62 -11 71 -20z"/>
<path d="M3776 1143 c-46 -79 -87 -138 -98 -141 -40 -10 -15 -22 47 -22 37 0
65 4 65 10 0 6 -6 10 -13 10 -28 0 -37 22 -21 51 14 28 17 29 93 29 74 0 80
-2 96 -26 20 -30 14 -54 -15 -54 -11 0 -20 -4 -20 -10 0 -6 35 -10 85 -10 82
0 111 11 61 24 -18 4 -43 40 -100 141 -43 74 -83 135 -89 135 -7 0 -48 -62
-91 -137z m134 -35 c0 -4 -27 -8 -60 -8 -33 0 -60 3 -60 6 0 4 14 31 31 61
l32 55 28 -53 c16 -29 29 -56 29 -61z"/>
<path d="M4118 1268 c21 -11 22 -16 22 -135 0 -116 -1 -125 -20 -130 -40 -11
-18 -23 40 -23 33 0 60 4 60 10 0 6 -7 10 -15 10 -8 0 -19 9 -25 19 -12 23
-14 204 -1 199 4 -1 63 -55 130 -118 67 -63 126 -116 131 -118 6 -2 10 50 10
132 l0 135 28 15 c26 15 25 15 -43 15 -63 1 -67 -1 -45 -12 24 -12 25 -18 28
-105 1 -50 0 -92 -3 -92 -3 0 -54 47 -113 105 l-107 105 -50 -1 c-43 0 -47 -2
-27 -11z"/>
<path d="M4606 1198 l85 -82 -3 -55 c-3 -49 -6 -56 -25 -59 -13 -2 -23 -8 -23
-13 0 -5 36 -9 80 -9 44 0 80 4 80 9 0 5 -10 11 -22 13 -20 3 -23 9 -26 58
l-2 55 67 70 c38 39 77 75 88 82 17 10 7 12 -55 12 -62 -1 -70 -2 -47 -11 15
-5 27 -13 27 -18 0 -5 -22 -32 -49 -62 l-49 -53 -45 50 c-52 57 -57 72 -24 85
16 6 -1 9 -60 9 l-83 1 86 -82z"/>
<path d="M1438 753 c622 -2 1642 -2 2265 0 622 1 113 2 -1133 2 -1246 0 -1755
-1 -1132 -2z"/>
<path d="M1502 663 c575 -2 1520 -2 2100 0 579 1 108 2 -1047 2 -1155 0 -1629
-1 -1053 -2z"/>
<path d="M547 371 c-66 -33 -39 -111 38 -111 29 0 85 29 58 30 -6 0 -15 -4
-18 -10 -10 -16 -62 -12 -79 6 -19 18 -20 38 -6 65 12 22 68 27 88 7 9 -9 12
-8 12 4 0 23 -55 28 -93 9z"/>
<path d="M713 375 c-34 -14 -48 -43 -38 -75 7 -21 43 -46 53 -36 3 3 0 6 -7 6
-19 0 -32 47 -21 75 8 20 16 25 44 25 54 0 75 -51 36 -90 -11 -11 -15 -20 -10
-20 16 0 50 38 50 56 0 50 -56 80 -107 59z"/>
<path d="M2812 374 c-72 -30 -47 -114 33 -114 29 0 85 29 58 30 -6 0 -15 -4
-18 -10 -3 -5 -19 -10 -34 -10 -70 0 -81 92 -13 98 18 2 40 -2 48 -9 11 -9 14
-8 14 4 0 20 -52 27 -88 11z"/>
<path d="M2974 375 c-30 -12 -44 -32 -44 -61 0 -16 35 -54 51 -54 6 0 3 7 -5
16 -16 16 -21 50 -10 78 9 24 71 21 84 -3 15 -29 12 -49 -10 -71 -24 -24 -14
-26 18 -4 25 17 30 65 9 82 -28 24 -63 30 -93 17z"/>
<path d="M4358 372 c-43 -22 -52 -71 -16 -96 31 -22 42 -20 18 4 -22 22 -25
42 -10 71 13 24 75 27 84 3 12 -31 6 -63 -16 -78 -18 -13 -19 -16 -5 -16 21 0
57 35 57 56 0 53 -59 82 -112 56z"/>
<path d="M855 320 c0 -48 3 -60 16 -60 13 0 15 8 9 45 -4 25 -4 45 0 45 3 0
26 -20 50 -45 24 -25 47 -45 51 -45 4 0 9 27 11 60 3 54 1 60 -16 60 -16 0
-17 -3 -8 -12 13 -13 17 -68 4 -68 -4 0 -26 18 -47 40 -56 58 -70 54 -70 -20z"/>
<path d="M1047 373 c-18 -18 -4 -42 33 -57 39 -15 52 -39 28 -49 -9 -4 -10 -6
-1 -6 17 -1 44 29 37 41 -3 5 -26 18 -51 29 -24 10 -41 23 -38 29 8 13 65 13
65 0 0 -5 4 -10 8 -10 5 0 9 7 9 15 0 11 -12 15 -42 15 -23 0 -45 -3 -48 -7z"/>
<path d="M1189 333 c4 -61 15 -73 60 -73 48 0 61 14 61 66 0 25 5 44 13 47 6
3 3 6 -8 6 -18 1 -20 -5 -20 -51 0 -53 0 -53 -34 -56 -20 -2 -37 2 -42 10 -13
20 -11 86 4 91 6 3 1 6 -13 6 -24 1 -25 -1 -21 -46z"/>
<path d="M1369 329 c2 -36 -1 -54 -10 -60 -9 -5 9 -9 47 -9 50 0 63 3 69 18 5
14 4 15 -6 4 -7 -6 -28 -12 -46 -12 -33 0 -33 0 -33 49 0 30 5 51 13 54 6 3 1
6 -13 6 -24 1 -25 -1 -21 -50z"/>
<path d="M1470 363 c0 -13 3 -14 12 -5 7 7 20 12 30 12 15 0 18 -8 18 -49 0
-30 -5 -51 -12 -54 -7 -3 3 -5 22 -5 19 0 29 2 23 5 -8 3 -13 24 -13 54 0 41
3 49 18 49 10 0 24 -6 31 -12 11 -11 13 -10 9 2 -3 11 -23 16 -71 18 -58 3
-67 1 -67 -15z"/>
<path d="M1652 334 c-15 -26 -33 -53 -40 -60 -11 -12 -9 -14 15 -14 17 0 23 3
16 8 -22 14 3 34 38 30 25 -2 34 -8 33 -20 -1 -13 6 -18 24 -18 23 0 24 1 10
18 -9 9 -25 36 -37 60 -12 23 -24 42 -26 42 -3 0 -18 -21 -33 -46z m42 0 c9
-23 8 -24 -19 -24 -23 0 -24 2 -15 20 13 24 26 26 34 4z"/>
<path d="M1786 370 c6 -6 8 -31 4 -60 -5 -42 -4 -50 9 -50 13 0 15 9 13 48
l-4 47 49 -47 c27 -27 52 -48 55 -48 3 0 8 27 10 60 3 55 1 60 -17 59 -11 0
-14 -3 -7 -6 13 -5 17 -73 4 -73 -4 0 -26 18 -47 40 -21 22 -48 40 -59 40 -14
0 -17 -3 -10 -10z"/>
<path d="M1957 373 c-4 -3 -7 -11 -7 -17 0 -6 5 -5 12 2 7 7 20 12 30 12 15 0
18 -8 18 -49 0 -30 -5 -51 -12 -54 -7 -3 3 -5 22 -5 19 0 29 2 23 5 -8 3 -13
24 -13 54 0 41 3 49 18 49 10 0 23 -5 30 -12 9 -9 12 -8 12 5 0 14 -10 17 -63
17 -35 0 -67 -3 -70 -7z"/>
<path d="M2210 328 c-18 -29 -38 -56 -44 -60 -6 -4 3 -8 19 -8 18 0 25 3 18 8
-22 14 3 34 38 30 25 -2 34 -8 33 -20 -1 -13 5 -18 22 -18 23 0 23 1 -13 60
-19 33 -37 60 -38 60 -2 0 -18 -24 -35 -52z m44 6 c9 -23 8 -24 -14 -24 -11 0
-20 2 -20 4 0 12 13 36 20 36 4 0 11 -7 14 -16z"/>
<path d="M2348 373 c7 -3 12 -24 12 -53 0 -29 -5 -50 -12 -53 -7 -3 1 -5 17
-5 17 0 24 2 18 5 -14 5 -19 83 -6 83 4 0 29 -21 55 -47 l48 -47 0 56 c0 36 5
58 13 61 6 3 -1 5 -18 5 -16 0 -24 -2 -17 -5 13 -5 17 -73 4 -73 -4 0 -26 18
-47 40 -22 22 -48 40 -60 39 -11 0 -14 -3 -7 -6z"/>
<path d="M2539 329 c2 -36 -1 -54 -10 -60 -9 -5 8 -9 44 -9 48 0 62 4 82 25
14 13 25 29 25 35 0 6 -11 22 -25 35 -19 20 -34 25 -72 25 l-48 0 4 -51z m92
31 c12 -7 19 -21 19 -40 0 -32 -23 -50 -64 -50 -24 0 -26 3 -26 50 0 47 2 50
26 50 14 0 34 -5 45 -10z"/>
<path d="M3118 373 c16 -6 16 -85 0 -101 -9 -9 -8 -12 8 -12 17 0 19 6 16 45
-3 28 0 45 7 45 6 0 11 -4 11 -9 0 -5 20 -25 44 -45 l44 -36 4 60 c3 55 1 60
-17 59 -11 0 -14 -3 -7 -6 13 -5 17 -73 4 -73 -4 0 -26 18 -47 40 -22 22 -48
40 -60 39 -11 0 -14 -3 -7 -6z"/>
<path d="M3307 373 c-18 -18 -4 -42 33 -57 39 -15 52 -39 28 -49 -8 -3 -6 -6
4 -6 10 -1 22 8 28 19 8 16 6 22 -12 34 -13 7 -33 17 -45 21 -13 3 -23 13 -23
21 0 17 51 19 68 2 9 -9 12 -8 12 5 0 13 -9 17 -43 17 -24 0 -47 -3 -50 -7z"/>
<path d="M3431 363 c0 -11 3 -13 6 -5 2 6 16 12 29 12 22 0 24 -4 24 -49 0
-30 -5 -51 -12 -54 -7 -3 3 -5 22 -5 19 0 29 2 23 5 -8 3 -13 24 -13 54 0 41
3 49 18 49 10 0 24 -6 31 -12 11 -11 13 -10 9 2 -3 11 -23 16 -71 18 -59 3
-67 1 -66 -15z"/>
<path d="M3595 320 c0 -58 1 -60 25 -59 14 0 19 3 13 6 -7 2 -13 13 -13 24 0
28 34 24 54 -6 9 -14 26 -25 37 -25 18 0 17 2 -8 25 -26 23 -27 26 -10 39 21
17 22 42 1 50 -9 3 -34 6 -57 6 l-42 0 0 -60z m92 34 c7 -19 -14 -35 -42 -32
-12 2 -21 12 -23 26 -3 19 1 22 28 22 19 0 33 -6 37 -16z"/>
<path d="M3759 333 c4 -61 15 -73 60 -73 48 0 61 14 61 66 0 25 5 44 13 47 6
3 3 6 -8 6 -18 1 -20 -5 -20 -51 0 -53 0 -53 -34 -56 -20 -2 -37 2 -42 10 -13
20 -11 86 4 91 6 3 1 6 -13 6 -24 1 -25 -1 -21 -46z"/>
<path d="M3947 362 c-22 -24 -21 -65 1 -85 25 -23 86 -22 103 1 11 14 11 15
-1 5 -18 -16 -72 -17 -88 -1 -7 7 -12 24 -12 38 0 34 17 50 55 50 17 0 36 -5
43 -12 9 -9 12 -8 12 5 0 25 -90 24 -113 -1z"/>
<path d="M4081 363 c0 -11 3 -13 6 -5 2 6 16 12 29 12 22 0 24 -4 24 -49 0
-30 -5 -51 -12 -54 -7 -3 3 -5 22 -5 19 0 29 2 23 5 -8 3 -13 24 -13 54 0 41
3 49 18 49 10 0 24 -6 31 -12 11 -11 13 -10 9 2 -3 11 -23 16 -71 18 -59 3
-67 1 -66 -15z"/>
<path d="M4245 320 c0 -57 1 -60 25 -60 19 0 21 3 12 12 -16 16 -16 80 0 96 9
9 7 12 -12 12 -24 0 -25 -3 -25 -60z"/>
<path d="M4505 320 c0 -51 3 -60 18 -60 12 0 16 4 10 13 -10 16 -13 77 -4 77
4 0 27 -20 51 -45 24 -25 47 -45 51 -45 4 0 9 27 11 60 3 54 1 60 -16 60 -16
0 -17 -3 -8 -12 13 -13 17 -68 4 -68 -4 0 -26 18 -47 40 -56 58 -70 54 -70
-20z"/>
<path d="M1030 282 c0 -17 6 -22 27 -22 14 0 24 1 22 3 -2 1 -14 11 -26 21
-23 19 -23 19 -23 -2z"/>
<path d="M3293 275 c0 -9 10 -15 26 -15 24 0 24 1 5 15 -24 18 -31 19 -31 0z"/>
<path d="M2022 114 c-50 -35 -15 -104 53 -104 29 0 85 29 58 30 -6 0 -15 -4
-18 -10 -10 -16 -62 -12 -79 6 -19 18 -20 38 -6 65 12 22 68 27 88 7 9 -9 12
-8 12 5 0 23 -76 24 -108 1z"/>
<path d="M2180 110 c-11 -11 -20 -29 -20 -40 0 -23 34 -60 53 -59 9 0 9 2 -1
6 -21 8 -33 50 -22 78 8 20 16 25 44 25 54 0 75 -51 36 -90 -11 -11 -15 -20
-10 -20 17 0 50 39 50 60 0 54 -89 81 -130 40z"/>
<path d="M2345 70 c0 -50 3 -60 17 -60 10 0 16 6 14 12 -10 33 -15 78 -8 78 5
0 18 -20 30 -46 12 -25 26 -43 30 -40 5 3 17 23 27 46 10 22 22 40 27 40 13 0
9 -78 -4 -83 -7 -3 -2 -6 12 -6 24 -1 25 1 25 59 0 50 -3 60 -17 60 -11 0 -27
-18 -42 -47 l-24 -48 -23 48 c-16 33 -29 47 -43 47 -19 0 -21 -6 -21 -60z"/>
<path d="M2558 123 c7 -3 12 -24 12 -53 0 -29 -5 -50 -12 -53 -7 -3 3 -5 22
-5 19 0 29 2 23 5 -7 2 -13 13 -13 23 0 14 9 20 31 22 39 4 59 29 40 52 -9 11
-29 16 -65 15 -28 0 -45 -3 -38 -6z m87 -28 c0 -14 -8 -21 -27 -23 -24 -3 -28
0 -28 23 0 23 4 26 28 23 19 -2 27 -9 27 -23z"/>
<path d="M2716 77 c-16 -28 -34 -55 -40 -59 -6 -4 3 -8 19 -8 21 0 26 3 16 9
-22 14 -3 31 34 31 37 0 56 -17 34 -31 -10 -6 -3 -9 20 -9 32 0 33 1 19 18 -8
9 -26 36 -38 60 -13 23 -26 42 -29 42 -3 0 -19 -24 -35 -53z m44 3 c9 -18 8
-20 -15 -20 -23 0 -24 2 -15 20 6 11 13 20 15 20 2 0 9 -9 15 -20z"/>
<path d="M2855 70 c0 -48 3 -60 16 -60 13 0 15 8 9 45 -4 25 -4 45 0 45 3 0
26 -20 50 -45 24 -25 47 -45 51 -45 4 0 9 27 11 60 3 54 1 60 -16 60 -16 0
-17 -3 -8 -12 13 -13 17 -68 4 -68 -4 0 -26 18 -47 40 -56 58 -70 54 -70 -20z"/>
<path d="M3051 93 c36 -39 40 -49 26 -70 -6 -9 -1 -13 16 -13 21 0 23 4 19 26
-3 19 3 34 29 60 31 32 31 34 11 34 -12 0 -21 -3 -20 -7 2 -5 -4 -18 -13 -30
l-16 -23 -21 23 c-12 13 -19 27 -15 30 3 4 -7 7 -22 7 l-29 0 35 -37z"/>
</g>
</svg>
