<?xml version="1.0" encoding="UTF-8"?><svg id="a" xmlns="http://www.w3.org/2000/svg" xmlns:xlink="http://www.w3.org/1999/xlink" viewBox="0 0 600 600"><defs><clipPath id="b"><rect x="-2469.23" y="277.62" width="1915.74" height="1182.31" style="fill:none;"/></clipPath><clipPath id="e"><rect x="-2469.23" y="-1050.19" width="1915.74" height="1182.31" style="fill:none;"/></clipPath></defs><g style="clip-path:url(#b);"><g id="c"><image id="d" width="2896" height="1638" transform="translate(-2502.39 -440.33) scale(1.28)" xlink:href="Coto1.png"/></g></g><g><g><path d="M184.33,306.26l-1.65,6.49c-1.08,3.94-2.52,7.54-3.96,11.47-15.41,34.76-42.3,52.35-80.66,52.35-16.15,0-30.85-3.96-44.82-11.84-12.55-7.9-22.24-18.3-29.04-31.56-6.83-13.26-10.4-27.96-10.4-43.74,0-16.86,4.28-32.27,12.53-45.9,8.27-13.26,20.09-23.66,35.5-31.19,12.55-6.09,26.18-9.32,40.17-10.03,13.99-.37,27.25,2.5,39.8,8.59,1.79,1.08,3.94,2.15,6.09,3.23,12.55,8.24,21.87,18.64,28.33,31.56,.02,.03,.04,.06,.05,.1,2.86,5.19,.64,11.74-4.66,14.39l-14.04,7.02c-1.44-6.09-3.23-11.47-5.38-16.83-5.38-13.28-13.26-23.31-23.31-30.48-7.54-5.38-15.78-8.98-24.73-10.4-9.69-1.44-18.64-.73-27.62,1.79-8.95,2.86-16.49,8.24-22.95,16.49-9.66,12.55-14.34,30.12-14.34,52.35,0,16.86,2.52,31.9,7.9,45.9,5.36,13.99,13.26,24.73,23.29,32.64,10.4,8.24,22.61,12.18,36.23,11.82,20.43-.34,36.92-7.51,49.1-20.79,9.69-10.4,23.55-29.08,28.56-43.41Z" style="fill:currentcolor;"/><path d="M394.49,146.73v53.4h36.92v11.5h-36.92v136.61c0,16.12,10.03,22.21,20.06,21.14,8.24-1.08,20.24-13.2,23.13-21.81h4.65c-3.57,15.05-21.32,28.64-35.66,29-10.76,0-21.53-3.6-27.96-11.47-8.98-10.76-11.13-27.99-11.13-45.55v-107.91h-31.53l24.11-8.79c4.79-1.75,8.79-5.15,11.28-9.6l13.05-23.26c3.46-6.17,6.36-12.65,8.66-19.34l1.34-3.91" style="fill:currentcolor;"/><path d="M576.15,246.06c6.83,12.89,10.05,26.89,10.05,41.59,0,16.12-4.31,31.19-12.55,44.82-8.24,13.63-19.38,24.37-33.35,32.27-13.63,7.54-28.33,11.11-43.74,11.47-15.78,.37-30.48-3.23-44.11-11.47-12.55-7.9-21.87-18.3-28.67-31.56-6.83-13.26-10.4-27.96-10.4-43.74,0-16.86,4.28-32.27,12.55-45.9,8.24-13.26,20.06-23.66,35.47-31.19,13.63-6.46,27.99-9.69,43.4-10.03,15.41,0,29.41,3.94,42.67,12.18,12.55,7.88,21.87,18.28,28.67,31.56Zm-16.12,49.12c0-16.86-2.86-31.93-8.24-44.82-5.38-13.28-13.26-23.31-23.31-30.48-7.54-5.38-15.78-8.98-24.73-10.4-9.69-1.44-18.64-.73-27.62,1.79-8.95,2.86-16.49,8.24-22.95,16.49-9.66,12.55-14.7,30.12-14.7,52.35,0,16.86,2.89,31.9,8.27,45.9,5.36,13.99,13.26,24.73,22.95,32.64,20.43,14.7,41.22,15.78,62.73,3.23,8.27-6.12,15.07-14.7,20.09-26.18,5.02-11.47,7.54-25.1,7.54-40.51Z" style="fill:currentcolor;"/><path d="M342.21,246.06c6.83,12.89,10.05,26.89,10.05,41.59,0,16.12-4.31,31.19-12.55,44.82-8.24,13.63-19.38,24.37-33.35,32.27-13.63,7.54-28.33,11.11-43.74,11.47-15.78,.37-30.48-3.23-44.11-11.47-12.55-7.9-21.87-18.3-28.67-31.56-6.83-13.26-10.4-27.96-10.4-43.74,0-16.86,4.28-32.27,12.53-45.9,8.27-13.26,20.09-23.66,35.5-31.19,13.63-6.46,27.99-9.69,43.4-10.03,15.41,0,29.41,3.94,42.67,12.18,12.55,7.88,21.87,18.28,28.67,31.56Zm-16.12,49.12c0-16.86-2.86-31.93-8.24-44.82-5.38-13.28-13.26-23.31-23.31-30.48-7.54-5.38-15.78-8.98-24.73-10.4-9.69-1.44-18.64-.73-27.62,1.79-8.95,2.86-16.49,8.24-22.95,16.49-9.66,12.55-14.7,30.12-14.7,52.35,0,16.86,2.89,31.9,8.27,45.9,5.36,13.99,13.26,24.73,22.95,32.64,20.43,14.7,41.22,15.78,62.73,3.23,8.24-6.12,15.07-14.7,20.09-26.18,5.02-11.47,7.54-25.1,7.54-40.51Z" style="fill:currentcolor;"/></g><g><path d="M107.04,450.43c-.98,.66-1.97,1.22-2.97,1.66-1.91,.78-3.89,1.18-5.94,1.18-4.29,0-7.96-1.54-10.99-4.61-3.07-3.01-4.61-6.68-4.61-10.99s1.54-7.98,4.61-11.03c3.01-3.05,6.68-4.57,10.99-4.57,2.05,0,4.05,.4,5.96,1.2,1,.4,1.97,.96,2.93,1.66l1.76,.56-3.75,3.77-.92-1.58c-.48-.28-1.04-.56-1.68-.82-1.3-.54-2.73-.82-4.31-.82-3.21,0-5.94,1.12-8.24,3.39-2.23,2.27-3.37,5.03-3.37,8.24s1.14,5.96,3.37,8.24c2.29,2.25,5.03,3.37,8.24,3.37,1.56,0,3.05-.28,4.47-.86,.42-.16,.92-.42,1.52-.78l.92-1.54,3.75,3.73-1.74,.6Z" style="fill:currentcolor;"/><path d="M163.55,422.07c4.33,0,8,1.52,11.01,4.57,3.05,3.05,4.59,6.72,4.59,11.03s-1.54,7.98-4.59,10.99c-3.01,3.07-6.68,4.61-11.01,4.61s-7.96-1.54-10.99-4.61c-3.07-3.01-4.61-6.68-4.61-10.99s1.54-7.98,4.61-11.03c3.03-3.05,6.7-4.57,10.99-4.57Zm8.24,7.36c-2.27-2.27-5.01-3.39-8.24-3.39s-5.94,1.12-8.24,3.39c-2.27,2.27-3.41,5.03-3.41,8.24s1.14,5.96,3.41,8.24c2.29,2.25,5.03,3.37,8.24,3.37s5.96-1.12,8.24-3.37c2.29-2.27,3.43-5.01,3.43-8.24s-1.14-5.96-3.43-8.24Z" style="fill:currentcolor;"/><path d="M240.48,445.39l.36,.92h-5.31l.34-.92-9.29-20.98v26.27l.68,1.84h-5.31l.7-1.84v-26.01l-.7-1.86h8.22l8.02,18.05,8-18.05h8.22l-.66,1.86v26.01l.66,1.84h-5.31l.7-1.84v-26.27l-9.31,20.98Z" style="fill:currentcolor;"/><path d="M313.13,422.81c1.76,0,3.25,.32,4.49,.94,1.22,.64,2.19,1.48,2.91,2.51,.92,1.32,1.44,2.77,1.56,4.41,.02,.24,.02,.48,.02,.72,.02,1.36-.22,2.69-.74,4.03-.66,1.68-1.68,3.19-3.11,4.53-1.42,1.36-3.21,2.33-5.39,2.93l-10.11,2.73v5.07l.66,1.84h-5.31l.72-1.84v-26.03l-.72-1.84h15.02Zm-10.37,18.73l9.18-2.47c2.95-.98,4.87-2.67,5.74-5.09,.4-1,.56-2.01,.46-3.03-.06-.9-.3-1.7-.76-2.41-.8-1.18-2.21-1.76-4.25-1.76h-10.37v14.76Z" style="fill:currentcolor;"/><path d="M380.88,424.84l4.25,26.01,.9,1.66h-5.37l.4-2.01-1.06-6.58-13.44,3.59-.52,2.99,.42,2.01h-5.37l.9-1.68,4.27-25.99-.38-2.03h15.36l-.36,2.03Zm-10.91,1.89l-2.73,16.5,12.11-3.23-2.17-13.26h-7.2Z" style="fill:currentcolor;"/><path d="M454.9,422.81l-.7,1.84v26.03l.7,1.84h-5.29l.66-1.84v-8.3c0-2.47-.78-4.79-2.31-6.96-1.52-2.15-3.39-3.97-5.57-5.43-2.19-1.46-4.87-2.53-8-3.23v23.92l.66,1.84h-5.31l.72-1.84v-26.03l-.72-1.84h3.27c2.77,0,5.53,.68,8.24,1.99,2.71,1.34,5.72,3.67,9.02,7v-7.14l-.66-1.86h5.29Z" style="fill:currentcolor;"/><path d="M516.76,424.82l-.42-2.01h5.39l-.9,1.68-4.31,26.01,.44,2.01h-5.37l.88-1.68,1.74-10.63h-7.06c-1.44,0-2.71-.46-3.79-1.38-1.08-.92-1.76-2.11-2.05-3.59l-1.78-10.75-.9-1.68h5.37l-.4,2.01,1.36,8.3c.16,.92,.6,1.68,1.3,2.25,.7,.6,1.5,.88,2.41,.88h6.22l1.87-11.43Z" style="fill:currentcolor;"/></g></g><g style="clip-path:url(#e);"><g id="f"><image id="g" width="2896" height="1638" transform="translate(-2502.39 -1768.13) scale(1.28)" xlink:href="Coto2.png"/></g></g></svg>