<?xml version="1.0" encoding="UTF-8"?><svg id="a" xmlns="http://www.w3.org/2000/svg" xmlns:xlink="http://www.w3.org/1999/xlink" viewBox="0 0 600 600"><defs><clipPath id="b"><rect x="-2469.23" y="-495.13" width="1915.74" height="1182.31" style="fill:none;"/></clipPath></defs><g style="clip-path:url(#b);"><g id="c"><image id="d" width="2896" height="1638" transform="translate(-2502.39 -1213.07) scale(1.28)" xlink:href="Coto1541.png"/></g></g><g><path d="M465.74,371.62h0c-2.7,9.87-6.32,18.89-9.93,28.76-38.63,87.14-106.03,131.24-202.19,131.24-40.47,0-77.33-9.93-112.35-29.68-31.46-19.81-55.74-45.87-72.79-79.11-17.11-33.24-26.06-70.09-26.06-109.65,0-42.25,10.73-80.89,31.4-115.05,20.73-33.24,50.35-59.3,88.98-78.19,31.46-15.27,65.62-23.36,100.7-25.14,35.08-.92,68.32,6.26,99.78,21.53,4.48,2.7,9.87,5.4,15.27,8.09,31.46,20.67,54.82,46.73,71.01,79.11,.04,.08,.09,.16,.13,.24,7.15,13.01,1.69,29.38-11.58,36.02l-35.28,17.64c-3.62-15.27-8.09-28.76-13.49-42.19-13.49-33.3-33.24-58.44-58.44-76.41-18.89-13.49-39.55-22.51-62-26.06-24.28-3.62-46.73-1.84-69.24,4.48-22.44,7.18-41.33,20.67-57.52,41.33-24.22,31.46-35.94,75.49-35.94,131.24,0,42.25,6.32,79.97,19.81,115.05,13.43,35.08,33.24,62,58.38,81.81,26.06,20.67,56.66,30.54,90.82,29.62,51.21-.86,92.54-18.83,123.08-52.13,24.28-26.06,54.89-56.6,67.46-92.54Z" style="fill:#1c2813;"/><path d="M522.88,143.34c0-11.11-29.15-40.26-40.26-40.26,11.11,0,40.26-29.15,40.26-40.26,0,11.11,29.15,40.26,40.26,40.26-11.11,0-40.26,29.15-40.26,40.26Z" style="fill:#1c2813;"/></g></svg>