<svg width="555" height="880" fill="none" xmlns="http://www.w3.org/2000/svg">
    <path d="M167.601 440V330.101H57.7022V440H167.601Z" fill="#7B61FF"/>
    <path d="M167.601 220.202V330.101H57.7022V220.202H167.601Z" fill="#7B61FF"/>
    <path fill-rule="evenodd" clip-rule="evenodd" d="M57.7022 330.101H167.601L167.586 331.919C166.616 391.776 117.791 440 57.7022 440V330.101Z" fill="#34A853"/>
    <path fill-rule="evenodd" clip-rule="evenodd" d="M57.7022 330.101H167.601L167.586 328.284C166.616 268.426 117.791 220.202 57.7022 220.202V330.101Z" fill="#72CA97"/>
    <path d="M277.5 440V330.101H167.601V440H277.5Z" fill="#72CA97"/>
    <path d="M277.5 110.303V220.202H167.601V110.303H277.5Z" fill="#72CA97"/>
    <path d="M57.7021 440V330.101H-52.1967V440H57.7021Z" fill="#72CA97"/>
    <path d="M167.601 0.404485V110.303H57.7022V0.40448L167.601 0.404485Z" fill="#7B61FF"/>
    <path fill-rule="evenodd" clip-rule="evenodd" d="M167.601 220.202H57.7022V110.303H167.601V220.202ZM140.126 165.253C140.126 150.079 127.825 137.778 112.652 137.778C97.4779 137.778 85.1769 150.079 85.1769 165.253C85.1769 180.426 97.4779 192.727 112.652 192.727C127.825 192.727 140.126 180.426 140.126 165.253Z" fill="#5753C9"/>
    <path d="M277.5 220.202V330.101H167.601V220.202H277.5Z" fill="#72CA97"/>
    <path fill-rule="evenodd" clip-rule="evenodd" d="M277.5 330.101H222.551L222.558 329.192C223.043 299.264 247.456 275.219 277.5 275.219V330.101Z" fill="#34A853"/>
    <path fill-rule="evenodd" clip-rule="evenodd" d="M277.5 220.202H222.551L222.558 221.111C223.043 251.04 247.456 275.084 277.5 275.084V220.202Z" fill="#7B61FF"/>
    <path fill-rule="evenodd" clip-rule="evenodd" d="M167.601 220.067H222.551L222.543 220.976C222.058 250.905 197.645 274.949 167.601 274.949V220.067Z" fill="#34A853"/>
    <path fill-rule="evenodd" clip-rule="evenodd" d="M167.601 330.101H222.551L222.543 329.192C222.058 299.264 197.645 275.219 167.601 275.219V330.101Z" fill="#7B61FF"/>
    <path d="M57.7021 110.303V0.404485L-52.1967 0.40448V110.303H57.7021Z" fill="#7A66FB"/>
    <path fill-rule="evenodd" clip-rule="evenodd" d="M57.7021 330.101L57.7022 220.202L55.885 220.217C-3.9728 221.187 -52.1967 270.013 -52.1967 330.101H57.7021Z" fill="#34A853"/>
    <path fill-rule="evenodd" clip-rule="evenodd" d="M57.7021 110.303V220.202L55.8849 220.187C-3.9728 219.217 -52.1967 170.392 -52.1967 110.303H57.7021Z" fill="#72CA97"/>
    <path d="M2.32498 331.261C2.32498 361.613 26.9264 386.219 57.2731 386.219C87.6198 386.219 112.221 361.613 112.221 331.261C112.221 300.91 87.6198 276.304 57.2731 276.304C26.9264 276.304 2.32498 300.91 2.32498 331.261Z" fill="#7B61FF"/>
    <path d="M167.604 55.3619C167.604 85.7137 192.205 110.319 222.552 110.319C252.899 110.319 277.5 85.7137 277.5 55.3619C277.5 25.01 252.899 0.404481 222.552 0.40448C192.205 0.404478 167.604 25.01 167.604 55.3619Z" fill="#7B61FF"/>
    <path d="M29.9897 330.877C29.9897 315.595 42.3765 303.206 57.6559 303.206C72.9353 303.206 85.322 315.595 85.322 330.877C85.322 346.159 72.9353 358.548 57.6559 358.548C42.3765 358.548 29.9897 346.159 29.9897 330.877Z" fill="#72CA97"/>
    <path fill-rule="evenodd" clip-rule="evenodd" d="M277.5 0.404577L167.601 110.303V0.404572L277.5 0.404577Z" fill="#5753C9"/>
    <path fill-rule="evenodd" clip-rule="evenodd" d="M167.601 110.303L57.7022 0.40448L167.601 0.404485V110.303Z" fill="#72CA97"/>
    <path fill-rule="evenodd" clip-rule="evenodd" d="M167.609 165.963C168.094 196.001 192.507 220.202 222.551 220.202C252.898 220.202 277.5 195.51 277.5 165.051H167.601L167.609 165.963Z" fill="#5753C9"/>
    <path fill-rule="evenodd" clip-rule="evenodd" d="M56.7867 0.412265C26.6447 0.897201 2.36042 25.3101 2.36041 55.354C2.36041 85.7014 27.1374 110.303 57.7021 110.303L57.7022 0.404572L56.7867 0.412265Z" fill="#7B61FF"/>
    <path fill-rule="evenodd" clip-rule="evenodd" d="M-52.189 109.443C-51.7041 79.301 -27.2912 55.0167 2.7527 55.0167C33.1002 55.0167 57.7021 79.7937 57.7021 110.358H-52.1967L-52.189 109.443Z" fill="#72CA97"/>
    <path fill-rule="evenodd" clip-rule="evenodd" d="M-51.3363 109.891C-21.1942 109.406 3.09002 84.9933 3.09002 54.9494C3.09002 24.602 -21.6869 1.70051e-06 -52.2517 0V109.899L-51.3363 109.891Z" fill="#7B61FF"/>
    <path fill-rule="evenodd" clip-rule="evenodd" d="M57.7022 110.303H2.82013L2.82774 111.212C3.31177 141.141 27.6946 165.185 57.7021 165.185L57.7022 110.303Z" fill="#34A853"/>
    <path fill-rule="evenodd" clip-rule="evenodd" d="M57.7022 0.404605L2.82013 0.404602L2.82774 1.31356C3.31177 31.2419 27.6946 55.2866 57.7021 55.2866L57.7022 0.404605Z" fill="#34A853"/>
    <path fill-rule="evenodd" clip-rule="evenodd" d="M167.601 330.101H277.5L277.485 331.919C276.515 391.776 227.69 440 167.601 440V330.101Z" fill="#34A853"/>
    <path d="M387.399 440V330.101H497.298V440H387.399Z" fill="#7B61FF"/>
    <path d="M387.399 220.202V330.101H497.298V220.202H387.399Z" fill="#7B61FF"/>
    <path fill-rule="evenodd" clip-rule="evenodd" d="M497.298 330.101H387.399L387.414 331.919C388.384 391.776 437.209 440 497.298 440V330.101Z" fill="#34A853"/>
    <path fill-rule="evenodd" clip-rule="evenodd" d="M497.298 330.101H387.399L387.414 328.284C388.384 268.426 437.209 220.202 497.298 220.202V330.101Z" fill="#72CA97"/>
    <path d="M277.5 440V330.101H387.399V440H277.5Z" fill="#72CA97"/>
    <path d="M277.5 110.303V220.202H387.399V110.303H277.5Z" fill="#72CA97"/>
    <path d="M497.298 440V330.101H607.197V440H497.298Z" fill="#72CA97"/>
    <path d="M387.399 0.404572V110.303H497.298V0.404576L387.399 0.404572Z" fill="#7B61FF"/>
    <path fill-rule="evenodd" clip-rule="evenodd" d="M387.399 220.202H497.298V110.303H387.399V220.202ZM414.874 165.253C414.874 150.079 427.175 137.778 442.348 137.778C457.522 137.778 469.823 150.079 469.823 165.253C469.823 180.426 457.522 192.727 442.348 192.727C427.175 192.727 414.874 180.426 414.874 165.253Z" fill="#5753C9"/>
    <path d="M277.5 220.202V330.101H387.399V220.202H277.5Z" fill="#72CA97"/>
    <path fill-rule="evenodd" clip-rule="evenodd" d="M277.5 330.101H332.449L332.442 329.192C331.957 299.264 307.544 275.219 277.5 275.219V330.101Z" fill="#34A853"/>
    <path fill-rule="evenodd" clip-rule="evenodd" d="M277.5 220.202H332.449L332.442 221.111C331.957 251.04 307.544 275.084 277.5 275.084V220.202Z" fill="#7B61FF"/>
    <path fill-rule="evenodd" clip-rule="evenodd" d="M387.399 220.067H332.449L332.457 220.976C332.942 250.905 357.355 274.949 387.399 274.949V220.067Z" fill="#34A853"/>
    <path fill-rule="evenodd" clip-rule="evenodd" d="M387.399 330.101H332.449L332.457 329.192C332.942 299.264 357.355 275.219 387.399 275.219V330.101Z" fill="#7B61FF"/>
    <path d="M497.298 110.303V0.404572L607.197 0.404576V110.303H497.298Z" fill="#7A66FB"/>
    <path fill-rule="evenodd" clip-rule="evenodd" d="M497.298 330.101V220.202L499.115 220.217C558.973 221.187 607.197 270.013 607.197 330.101H497.298Z" fill="#34A853"/>
    <path fill-rule="evenodd" clip-rule="evenodd" d="M497.298 110.303V220.202L499.115 220.187C558.973 219.217 607.197 170.392 607.197 110.303H497.298Z" fill="#72CA97"/>
    <path d="M552.675 331.261C552.675 361.613 528.074 386.219 497.727 386.219C467.38 386.219 442.779 361.613 442.779 331.261C442.779 300.91 467.38 276.304 497.727 276.304C528.074 276.304 552.675 300.91 552.675 331.261Z" fill="#7B61FF"/>
    <path d="M387.396 55.3619C387.396 85.7137 362.795 110.319 332.448 110.319C302.101 110.319 277.5 85.7137 277.5 55.3619C277.5 25.01 302.101 0.404479 332.448 0.40448C362.795 0.404482 387.396 25.01 387.396 55.3619Z" fill="#7B61FF"/>
    <path d="M525.01 330.877C525.01 315.595 512.624 303.206 497.344 303.206C482.065 303.206 469.678 315.595 469.678 330.877C469.678 346.159 482.065 358.548 497.344 358.548C512.624 358.548 525.01 346.159 525.01 330.877Z" fill="#72CA97"/>
    <path fill-rule="evenodd" clip-rule="evenodd" d="M277.5 0.404572L387.399 110.303V0.404576L277.5 0.404572Z" fill="#5753C9"/>
    <path fill-rule="evenodd" clip-rule="evenodd" d="M387.399 110.303L497.298 0.404576L387.399 0.404572V110.303Z" fill="#72CA97"/>
    <path fill-rule="evenodd" clip-rule="evenodd" d="M387.391 165.963C386.906 196.001 362.493 220.202 332.449 220.202C302.102 220.202 277.5 195.51 277.5 165.051H387.399L387.391 165.963Z" fill="#5753C9"/>
    <path fill-rule="evenodd" clip-rule="evenodd" d="M498.213 0.412173C528.355 0.897111 552.639 25.31 552.639 55.3539C552.639 85.7014 527.863 110.303 497.298 110.303V0.40448L498.213 0.412173Z" fill="#7B61FF"/>
    <path fill-rule="evenodd" clip-rule="evenodd" d="M607.189 109.443C606.704 79.3011 582.291 55.0169 552.247 55.0169C521.9 55.0169 497.298 79.7938 497.298 110.359H607.197L607.189 109.443Z" fill="#72CA97"/>
    <path fill-rule="evenodd" clip-rule="evenodd" d="M606.336 109.891C576.194 109.406 551.91 84.9933 551.91 54.9494C551.91 24.602 576.687 -9.71548e-07 607.252 0V109.899L606.336 109.891Z" fill="#7B61FF"/>
    <path fill-rule="evenodd" clip-rule="evenodd" d="M497.298 110.303H552.18L552.172 111.212C551.688 141.141 527.305 165.185 497.298 165.185V110.303Z" fill="#34A853"/>
    <path fill-rule="evenodd" clip-rule="evenodd" d="M497.298 0.40451L552.18 0.404512L552.172 1.31348C551.688 31.2418 527.305 55.2865 497.298 55.2865V0.40451Z" fill="#34A853"/>
    <path fill-rule="evenodd" clip-rule="evenodd" d="M387.399 330.101H277.5L277.515 331.919C278.485 391.776 327.31 440 387.399 440V330.101Z" fill="#34A853"/>
    <path d="M167.601 440V549.899H57.7022V440H167.601Z" fill="#7B61FF"/>
    <path d="M167.601 659.798V549.899H57.7022V659.798H167.601Z" fill="#7B61FF"/>
    <path fill-rule="evenodd" clip-rule="evenodd" d="M57.7022 549.899H167.601L167.586 548.081C166.616 488.224 117.791 440 57.7022 440V549.899Z" fill="#34A853"/>
    <path fill-rule="evenodd" clip-rule="evenodd" d="M57.7022 549.899H167.601L167.586 551.717C166.616 611.574 117.791 659.798 57.7022 659.798V549.899Z" fill="#72CA97"/>
    <path d="M277.5 440V549.899H167.601V440H277.5Z" fill="#72CA97"/>
    <path d="M277.5 769.697V659.798H167.601V769.697H277.5Z" fill="#72CA97"/>
    <path d="M57.7021 440V549.899H-52.1967V440H57.7021Z" fill="#72CA97"/>
    <path d="M167.601 879.596V769.697H57.7022V879.596H167.601Z" fill="#7B61FF"/>
    <path fill-rule="evenodd" clip-rule="evenodd" d="M167.601 659.798H57.7022V769.697H167.601V659.798ZM140.126 714.747C140.126 729.921 127.825 742.222 112.652 742.222C97.4779 742.222 85.1769 729.921 85.1769 714.747C85.1769 699.573 97.4779 687.273 112.652 687.273C127.825 687.273 140.126 699.573 140.126 714.747Z" fill="#5753C9"/>
    <path d="M277.5 659.798V549.899H167.601V659.798H277.5Z" fill="#72CA97"/>
    <path fill-rule="evenodd" clip-rule="evenodd" d="M277.5 549.899H222.551L222.558 550.808C223.043 580.736 247.456 604.781 277.5 604.781V549.899Z" fill="#34A853"/>
    <path fill-rule="evenodd" clip-rule="evenodd" d="M277.5 659.798H222.551L222.558 658.889C223.043 628.96 247.456 604.916 277.5 604.916V659.798Z" fill="#7B61FF"/>
    <path fill-rule="evenodd" clip-rule="evenodd" d="M167.601 659.933H222.551L222.543 659.024C222.058 629.095 197.645 605.051 167.601 605.051V659.933Z" fill="#34A853"/>
    <path fill-rule="evenodd" clip-rule="evenodd" d="M167.601 549.899H222.551L222.543 550.808C222.058 580.736 197.645 604.781 167.601 604.781V549.899Z" fill="#7B61FF"/>
    <path d="M57.7021 769.697V879.596H-52.1967V769.697H57.7021Z" fill="#7A66FB"/>
    <path fill-rule="evenodd" clip-rule="evenodd" d="M57.7021 549.899L57.7022 659.798L55.885 659.783C-3.9728 658.813 -52.1967 609.987 -52.1967 549.899H57.7021Z" fill="#34A853"/>
    <path fill-rule="evenodd" clip-rule="evenodd" d="M57.7021 769.697V659.798L55.8849 659.813C-3.9728 660.783 -52.1967 709.608 -52.1967 769.697H57.7021Z" fill="#72CA97"/>
    <path d="M2.32498 548.739C2.32498 518.387 26.9264 493.781 57.2731 493.781C87.6198 493.781 112.221 518.387 112.221 548.739C112.221 579.09 87.6198 603.696 57.2731 603.696C26.9264 603.696 2.32498 579.09 2.32498 548.739Z" fill="#7B61FF"/>
    <path d="M167.604 824.638C167.604 794.286 192.205 769.681 222.552 769.681C252.899 769.681 277.5 794.286 277.5 824.638C277.5 854.99 252.899 879.596 222.552 879.596C192.205 879.596 167.604 854.99 167.604 824.638Z" fill="#7B61FF"/>
    <path d="M29.9897 549.123C29.9897 564.405 42.3765 576.794 57.6559 576.794C72.9353 576.794 85.322 564.405 85.322 549.123C85.322 533.841 72.9353 521.452 57.6559 521.452C42.3765 521.452 29.9897 533.841 29.9897 549.123Z" fill="#72CA97"/>
    <path fill-rule="evenodd" clip-rule="evenodd" d="M277.5 879.595L167.601 769.697V879.595H277.5Z" fill="#5753C9"/>
    <path fill-rule="evenodd" clip-rule="evenodd" d="M167.601 769.697L57.7022 879.596H167.601V769.697Z" fill="#72CA97"/>
    <path fill-rule="evenodd" clip-rule="evenodd" d="M167.609 714.037C168.094 683.999 192.507 659.798 222.551 659.798C252.898 659.798 277.5 684.49 277.5 714.949H167.601L167.609 714.037Z" fill="#5753C9"/>
    <path fill-rule="evenodd" clip-rule="evenodd" d="M56.7867 879.588C26.6447 879.103 2.36042 854.69 2.36041 824.646C2.36041 794.299 27.1374 769.697 57.7021 769.697L57.7022 879.596L56.7867 879.588Z" fill="#7B61FF"/>
    <path fill-rule="evenodd" clip-rule="evenodd" d="M-52.189 770.557C-51.7041 800.699 -27.2912 824.983 2.7527 824.983C33.1002 824.983 57.7021 800.206 57.7021 769.641H-52.1967L-52.189 770.557Z" fill="#72CA97"/>
    <path fill-rule="evenodd" clip-rule="evenodd" d="M-51.3363 770.109C-21.1942 770.594 3.09002 795.007 3.09002 825.051C3.09002 855.398 -21.6869 880 -52.2517 880V770.101L-51.3363 770.109Z" fill="#7B61FF"/>
    <path fill-rule="evenodd" clip-rule="evenodd" d="M57.7022 769.697H2.82013L2.82774 768.788C3.31177 738.859 27.6946 714.815 57.7021 714.815L57.7022 769.697Z" fill="#34A853"/>
    <path fill-rule="evenodd" clip-rule="evenodd" d="M57.7022 879.596H2.82013L2.82774 878.687C3.31177 848.758 27.6946 824.714 57.7021 824.714L57.7022 879.596Z" fill="#34A853"/>
    <path fill-rule="evenodd" clip-rule="evenodd" d="M167.601 549.899H277.5L277.485 548.081C276.515 488.224 227.69 440 167.601 440V549.899Z" fill="#34A853"/>
    <path d="M387.399 440V549.899H497.298V440H387.399Z" fill="#7B61FF"/>
    <path d="M387.399 659.798V549.899H497.298V659.798H387.399Z" fill="#7B61FF"/>
    <path fill-rule="evenodd" clip-rule="evenodd" d="M497.298 549.899H387.399L387.414 548.081C388.384 488.224 437.209 440 497.298 440V549.899Z" fill="#34A853"/>
    <path fill-rule="evenodd" clip-rule="evenodd" d="M497.298 549.899H387.399L387.414 551.717C388.384 611.574 437.209 659.798 497.298 659.798V549.899Z" fill="#72CA97"/>
    <path d="M277.5 440V549.899H387.399V440H277.5Z" fill="#72CA97"/>
    <path d="M277.5 769.697V659.798H387.399V769.697H277.5Z" fill="#72CA97"/>
    <path d="M497.298 440V549.899H607.197V440H497.298Z" fill="#72CA97"/>
    <path d="M387.399 879.595V769.697H497.298V879.595H387.399Z" fill="#7B61FF"/>
    <path fill-rule="evenodd" clip-rule="evenodd" d="M387.399 659.798H497.298V769.697H387.399V659.798ZM414.874 714.747C414.874 729.921 427.175 742.222 442.348 742.222C457.522 742.222 469.823 729.921 469.823 714.747C469.823 699.573 457.522 687.273 442.348 687.273C427.175 687.273 414.874 699.573 414.874 714.747Z" fill="#5753C9"/>
    <path d="M277.5 659.798V549.899H387.399V659.798H277.5Z" fill="#72CA97"/>
    <path fill-rule="evenodd" clip-rule="evenodd" d="M277.5 549.899H332.449L332.442 550.808C331.957 580.736 307.544 604.781 277.5 604.781V549.899Z" fill="#34A853"/>
    <path fill-rule="evenodd" clip-rule="evenodd" d="M277.5 659.798H332.449L332.442 658.889C331.957 628.96 307.544 604.916 277.5 604.916V659.798Z" fill="#7B61FF"/>
    <path fill-rule="evenodd" clip-rule="evenodd" d="M387.399 659.933H332.449L332.457 659.024C332.942 629.095 357.355 605.051 387.399 605.051V659.933Z" fill="#34A853"/>
    <path fill-rule="evenodd" clip-rule="evenodd" d="M387.399 549.899H332.449L332.457 550.808C332.942 580.736 357.355 604.781 387.399 604.781V549.899Z" fill="#7B61FF"/>
    <path d="M497.298 769.697V879.595H607.197V769.697H497.298Z" fill="#7A66FB"/>
    <path fill-rule="evenodd" clip-rule="evenodd" d="M497.298 549.899V659.798L499.115 659.783C558.973 658.813 607.197 609.987 607.197 549.899H497.298Z" fill="#34A853"/>
    <path fill-rule="evenodd" clip-rule="evenodd" d="M497.298 769.697V659.798L499.115 659.813C558.973 660.783 607.197 709.608 607.197 769.697H497.298Z" fill="#72CA97"/>
    <path d="M552.675 548.739C552.675 518.387 528.074 493.781 497.727 493.781C467.38 493.781 442.779 518.387 442.779 548.739C442.779 579.09 467.38 603.696 497.727 603.696C528.074 603.696 552.675 579.09 552.675 548.739Z" fill="#7B61FF"/>
    <path d="M387.396 824.638C387.396 794.286 362.795 769.681 332.448 769.681C302.101 769.681 277.5 794.286 277.5 824.638C277.5 854.99 302.101 879.596 332.448 879.596C362.795 879.596 387.396 854.99 387.396 824.638Z" fill="#7B61FF"/>
    <path d="M525.01 549.123C525.01 564.405 512.624 576.794 497.344 576.794C482.065 576.794 469.678 564.405 469.678 549.123C469.678 533.841 482.065 521.452 497.344 521.452C512.624 521.452 525.01 533.841 525.01 549.123Z" fill="#72CA97"/>
    <path fill-rule="evenodd" clip-rule="evenodd" d="M277.5 879.595L387.399 769.697V879.595H277.5Z" fill="#5753C9"/>
    <path fill-rule="evenodd" clip-rule="evenodd" d="M387.399 769.697L497.298 879.595H387.399V769.697Z" fill="#72CA97"/>
    <path fill-rule="evenodd" clip-rule="evenodd" d="M387.391 714.037C386.906 683.999 362.493 659.798 332.449 659.798C302.102 659.798 277.5 684.49 277.5 714.949H387.399L387.391 714.037Z" fill="#5753C9"/>
    <path fill-rule="evenodd" clip-rule="evenodd" d="M498.213 879.588C528.355 879.103 552.639 854.69 552.639 824.646C552.639 794.299 527.863 769.697 497.298 769.697V879.596L498.213 879.588Z" fill="#7B61FF"/>
    <path fill-rule="evenodd" clip-rule="evenodd" d="M607.189 770.557C606.704 800.699 582.291 824.983 552.247 824.983C521.9 824.983 497.298 800.206 497.298 769.641H607.197L607.189 770.557Z" fill="#72CA97"/>
    <path fill-rule="evenodd" clip-rule="evenodd" d="M606.336 770.109C576.194 770.594 551.91 795.007 551.91 825.051C551.91 855.398 576.687 880 607.252 880V770.101L606.336 770.109Z" fill="#7B61FF"/>
    <path fill-rule="evenodd" clip-rule="evenodd" d="M497.298 769.697H552.18L552.172 768.788C551.688 738.859 527.305 714.815 497.298 714.815V769.697Z" fill="#34A853"/>
    <path fill-rule="evenodd" clip-rule="evenodd" d="M497.298 879.596L552.18 879.595L552.172 878.687C551.688 848.758 527.305 824.713 497.298 824.714V879.596Z" fill="#34A853"/>
    <path fill-rule="evenodd" clip-rule="evenodd" d="M387.399 549.899H277.5L277.515 548.081C278.485 488.224 327.31 440 387.399 440V549.899Z" fill="#34A853"/>
</svg>
