<svg width="147" height="36" viewBox="0 0 147 36" fill="none" xmlns="http://www.w3.org/2000/svg">
    <path fill-rule="evenodd" clip-rule="evenodd"
          d="M38.0565 2.53132C38.0565 1.51104 37.444 0.590503 36.5028 0.196464C35.5617 -0.197575 34.476 0.0119267 33.7491 0.727845L25.483 8.86868L21.5129 1.34945C21.074 0.518179 20.2105 -0.00139995 19.2705 7.27532e-05C18.3305 0.00154547 17.4687 0.523827 17.0324 1.35647L13.0053 9.04167L4.2803 0.701548C3.54108 -0.00506163 2.44929 -0.197463 1.51306 0.213886C0.576819 0.625235 -0.0199391 1.55952 0.000509373 2.58193L0.616069 33.3599C0.639175 34.5152 1.44172 35.5082 2.56646 35.7731C3.6912 36.0381 4.85258 35.5077 5.3889 34.4842L14.3683 17.3478L17.5254 20.3656C18.5145 21.3111 20.0758 21.2994 21.0506 20.3393L24.1849 17.2526L33.2869 34.4912C33.8301 35.52 35.0047 36.0461 36.1341 35.7663C37.2634 35.4864 38.0565 34.4728 38.0565 33.3093V2.53132ZM32.994 23.094L27.9512 13.5433L32.994 8.57693V23.094ZM19.283 7.96871L21.7167 12.578L19.2482 15.0091L16.8134 12.6817L19.283 7.96871ZM5.18375 8.56845L10.5603 13.7078L5.48043 23.4022L5.18375 8.56845ZM86.0962 33.2347V2.6059H79.0546L69.2482 25.9771L59.3122 2.6059H52.4002V33.2347H57.4546V10.7707L66.9154 33.2347H71.4082L80.9554 10.6843V33.2347H86.0962ZM114.401 33.2347H120.06L108.137 2.6059H102.132L90.2086 33.2347H95.695L98.5462 25.5451H111.506L114.401 33.2347ZM105.026 8.2219L109.692 20.7499H100.361L105.026 8.2219ZM124.048 2.6059L132.602 26.4523L141.198 2.6059H146.685L135.107 33.2347H129.837L118.432 2.6059H124.048Z"
          fill="#202020"/>
</svg>
